<?xml version="1.0" encoding="UTF-8"?>
<svg id="Layer_2" data-name="Layer 2" xmlns="http://www.w3.org/2000/svg" viewBox="0 0 87.25 36.24">
  <defs>
    <style>
      .cls-1 {
        letter-spacing: .25em;
      }

      .cls-2 {
        font-family: BebasNeueBold, 'Bebas Neue';
        font-size: 6.18px;
      }

      .cls-2, .cls-3, .cls-4 {
        fill: #fff;
      }

      .cls-5 {
        letter-spacing: .19em;
      }

      .cls-3 {
        fill-rule: evenodd;
      }

      .cls-3, .cls-4 {
        stroke-width: 0px;
      }
    </style>
  </defs>
  <g id="Layer_1-2" data-name="Layer 1">
    <g>
      <g>
        <path class="cls-4" d="M34.52.33h4.5v28.64h-4.5V.33Z"/>
        <path class="cls-4" d="M46.79,12.4h6.18v4.09h-6.18v8.39h7.77v4.09h-12.27V.33h12.27v4.09h-7.77v7.98Z"/>
        <path class="cls-4" d="M70.81,6.91v1.02c0,2.95-.9,4.83-2.9,5.77,2.41.94,3.35,3.11,3.35,6.14v2.33c0,4.42-2.33,6.79-6.83,6.79h-7.08V.33h6.79c4.66,0,6.67,2.17,6.67,6.59ZM61.85,4.42v7.57h1.76c1.68,0,2.7-.74,2.7-3.03v-1.6c0-2.05-.7-2.95-2.29-2.95h-2.17ZM61.85,16.08v8.8h2.58c1.51,0,2.33-.7,2.33-2.82v-2.5c0-2.66-.86-3.48-2.9-3.48h-2Z"/>
        <path class="cls-4" d="M73.59,7.2C73.59,2.62,76,0,80.42,0s6.83,2.62,6.83,7.2v14.89c0,4.58-2.41,7.2-6.83,7.2s-6.83-2.62-6.83-7.2V7.2ZM78.09,22.38c0,2.05.9,2.82,2.33,2.82s2.33-.78,2.33-2.82V6.91c0-2.05-.9-2.82-2.33-2.82s-2.33.78-2.33,2.82v15.46Z"/>
        <g>
          <path class="cls-3" d="M.7.04v22.13L21.3,1.57h7.45L1.2,29.12h2.16L32.44.04h-11.78L2.23,18.48v-7.45L13.22.04S.8-.05.7.04Z"/>
          <path class="cls-4" d="M25.3,29.07h-.63s-.03,0-.05,0c-.22,0-.45-.03-.67-.06-.43-.06-.85-.16-1.27-.29-1.3-.43-2.4-1.16-3.3-2.19-1.11-1.28-1.71-2.78-1.8-4.47,0-.05-.01-.1-.02-.15,0-.16,0-.31,0-.47,0-.01,0-.02,0-.04,0-.09.01-.18.02-.27.02-.28.06-.55.11-.83.13-.71.36-1.39.69-2.03.59-1.14,1.42-2.07,2.48-2.78,1.12-.75,2.36-1.15,3.7-1.23.3-.02.59-.01.89,0,.31.02.62.06.92.12.67.13,1.32.35,1.93.65.75.38,1.42.87,2.01,1.48.82.85,1.4,1.84,1.75,2.96.12.4.21.8.26,1.21.03.22.05.44.06.67,0,.14,0,.28,0,.42,0,.2,0,.41-.03.61-.03.34-.09.68-.17,1.02-.34,1.4-1.02,2.6-2.06,3.6-1.34,1.28-2.93,1.97-4.78,2.07-.02,0-.03,0-.05,0ZM30.79,21.66c0-3.19-2.58-5.79-5.77-5.8-3.2-.02-5.82,2.56-5.83,5.77-.01,3.23,2.59,5.79,5.74,5.83,3.22.03,5.86-2.57,5.86-5.8Z"/>
        </g>
      </g>
      <text class="cls-2" transform="translate(0 35.14) scale(1.09 1)"><tspan class="cls-1" x="0" y="0">SUPP</tspan><tspan class="cls-5" x="15.68" y="0">L</tspan><tspan class="cls-1" x="18.94" y="0">Y CHAIN SOLUTIONS</tspan></text>
    </g>
  </g>
</svg>